<?xml version="1.0" encoding="UTF-8"?>
<!DOCTYPE svg PUBLIC "-//W3C//DTD SVG 1.1//EN" "http://www.w3.org/Graphics/SVG/1.1/DTD/svg11.dtd">
<!-- Creator: CorelDRAW 2019 (64-Bit) -->
<svg xmlns="http://www.w3.org/2000/svg" xml:space="preserve" width="210mm" height="297mm" version="1.1" style="shape-rendering:geometricPrecision; text-rendering:geometricPrecision; image-rendering:optimizeQuality; fill-rule:evenodd; clip-rule:evenodd"
viewBox="0 0 21000 29700"
 xmlns:xlink="http://www.w3.org/1999/xlink"
 xmlns:xodm="http://www.corel.com/coreldraw/odm/2003">
 <defs>
  <style type="text/css">
   <![CDATA[
    .fil0 {fill:#EBECEC}
    .fil2 {fill:#992686}
    .fil3 {fill:#F01B5B}
    .fil4 {fill:#FF5513}
    .fil1 {fill:#FFAA29}
   ]]>
  </style>
 </defs>
 <g id="Слой_x0020_1">
  <metadata id="CorelCorpID_0Corel-Layer"/>
  <rect class="fil0" x="6768.96" y="7078.97" width="7852.36" height="7852.36" rx="512.92" ry="665.24"/>
  <path class="fil1" d="M12452.09 12802.73c118.35,165.86 188.62,271.44 291.01,413.86 242.93,337.89 622.31,999.2 883.63,1221.46 446.6,-72.77 336.1,-111.13 434.11,-550.04 63.89,-285.94 112.18,-500.84 158.31,-794.76 89.55,-571.19 147.55,-1224.52 154.97,-1812.57 11.58,-917.55 -133.26,-2587.49 -421.35,-3415.28 -66.81,-44.88 -19.63,-40.44 -181.4,-90.18 -31.29,-9.57 -111.69,-14.22 -144.64,-19.49l-2181.19 3112.13c-62.71,99.9 -58,115.99 -142.56,236.49l1149.11 1698.38z"/>
  <g id="_2265365543488">
  </g>
  <path class="fil2" d="M7394.55 7826c-503,1785.58 -597.89,4792.48 10.55,6557.18l1198.57 224.41 -8.19 -7034.3 -1200.93 252.71z"/>
  <g id="_2265365540096">
  </g>
  <path class="fil3" d="M9467.32 10662.11c680.45,-24.21 986.3,121.26 1310.33,-346.98l1801.18 -2609.07c65.69,-111.68 -2.91,23.1 55.43,-128.82 -705.29,-232.32 -2368.98,-167.53 -3161.04,-131.94l-5.9 3216.81z"/>
  <g id="_2265365541248">
  </g>
  <path class="fil4" d="M9446.95 14738.7c571.47,28.99 1075.99,64.16 1654.54,44.32 504.24,-17.34 1012.31,-129.09 1502.27,-128.68l-648.75 -990.18c-232.73,-324.03 -392.84,-590.82 -619.33,-911.38 -997.12,-1411.4 -572.65,-1167.7 -1914.4,-1224.31l25.67 3210.23z"/>
  <g id="_2265365539136">
  </g>
 </g>
</svg>
